<?xml version="1.0" standalone="no"?><!DOCTYPE svg PUBLIC "-//W3C//DTD SVG 1.1//EN" "http://www.w3.org/Graphics/SVG/1.1/DTD/svg11.dtd"><svg t="1555547863380" class="icon" style="" viewBox="0 0 1024 1024" version="1.1" xmlns="http://www.w3.org/2000/svg" p-id="9523" xmlns:xlink="http://www.w3.org/1999/xlink" width="32" height="32"><defs><style type="text/css"></style></defs><path d="M862 779.3c-6.8 0-12.3-5.5-12.3-12.3V514.1c0-45.2-8.9-89.2-26.6-130.7-17-40.1-41.4-76.1-72.3-107.1-31-31-67-55.3-107.1-72.3-41.5-17.6-85.4-26.6-130.7-26.6-45.2 0-89.2 8.9-130.7 26.6-40.1 17-76.1 41.4-107.1 72.3-31 31-55.3 67-72.3 107.1-17.6 41.5-26.6 85.4-26.6 130.7v252.8c0 6.8-5.5 12.3-12.3 12.3s-12.3-5.5-12.3-12.3V514.1c0-48.6 9.6-95.8 28.5-140.3 18.3-43 44.4-81.6 77.6-114.9 33.2-33.2 71.9-59.3 114.9-77.6 44.5-18.9 91.7-28.5 140.3-28.5 48.6 0 95.8 9.6 140.3 28.5 43 18.3 81.6 44.4 114.9 77.6 33.2 33.2 59.3 71.9 77.6 114.9 18.9 44.5 28.5 91.7 28.5 140.3v252.8c0 6.9-5.5 12.4-12.3 12.4z" fill="#707070" p-id="9524"></path><path d="M99.9 850.7c-35.4 0-64.1-28.7-64.1-64.1V618.5c0-35.4 28.7-64.1 64.1-64.1 35.4 0 64.1 28.7 64.1 64.1v168.1c0 35.4-28.7 64.1-64.1 64.1z" fill="#707070" p-id="9525"></path><path d="M99.9 863c-42.1 0-76.4-34.3-76.4-76.4V618.5c0-42.1 34.3-76.4 76.4-76.4s76.4 34.3 76.4 76.4v168.1c0.1 42.1-34.2 76.4-76.4 76.4z m0-296.3c-28.5 0-51.8 23.2-51.8 51.8v168.1c0 28.5 23.2 51.8 51.8 51.8 28.5 0 51.8-23.2 51.8-51.8V618.5c0-28.5-23.2-51.8-51.8-51.8z" fill="#707070" p-id="9526"></path><path d="M926.1 850.7c-35.4 0-64.1-28.7-64.1-64.1V618.5c0-35.4 28.7-64.1 64.1-64.1 35.4 0 64.1 28.7 64.1 64.1v168.1c0 35.4-28.7 64.1-64.1 64.1z" fill="#707070" p-id="9527"></path><path d="M926.1 863c-42.1 0-76.4-34.3-76.4-76.4V618.5c0-42.1 34.3-76.4 76.4-76.4s76.4 34.3 76.4 76.4v168.1c0 42.1-34.3 76.4-76.4 76.4z m0-296.3c-28.5 0-51.8 23.2-51.8 51.8v168.1c0 28.5 23.2 51.8 51.8 51.8 28.5 0 51.8-23.2 51.8-51.8V618.5c-0.1-28.5-23.3-51.8-51.8-51.8zM527.2 762.9c-0.9 0-1.8-0.1-2.7-0.2-6.5-1.1-11.6-6-13-12.5l-41.8-192-71.5 107.3c-3 4.5-8 7.2-13.4 7.2h-92.6c-8.9 0-16.1-7.2-16.1-16.1s7.2-16.1 16.1-16.1h84L464 508.8c3.6-5.4 10-8.1 16.4-6.9 6.4 1.2 11.4 6.1 12.8 12.4l41.4 190.3 39.6-63.6c2.9-4.7 8.1-7.6 13.7-7.6h146c8.9 0 16.1 7.2 16.1 16.1s-7.2 16.1-16.1 16.1h-137l-55.8 89.7c-3.1 4.8-8.4 7.6-13.9 7.6z" fill="#707070" p-id="9528"></path></svg>