<?xml version="1.0" standalone="no"?><!DOCTYPE svg PUBLIC "-//W3C//DTD SVG 1.1//EN" "http://www.w3.org/Graphics/SVG/1.1/DTD/svg11.dtd"><svg t="1553760602316" class="icon" style="" viewBox="0 0 1024 1024" version="1.1" xmlns="http://www.w3.org/2000/svg" p-id="885" xmlns:xlink="http://www.w3.org/1999/xlink" width="32" height="32"><defs><style type="text/css"></style></defs><path d="M670.5 379L458.2 591.3 353.5 486.5c-9.9-9.9-25.9-9.9-35.8 0-9.9 9.9-9.9 25.9 0 35.8l112.5 112.5c7.5 7.5 17.4 11.6 28 11.6 10.6 0 20.6-4.1 28-11.6l220.1-220.1c9.9-9.9 9.9-25.9 0-35.8-9.8-9.8-25.9-9.8-35.8 0.1z" p-id="886" fill="#14ae13"></path><path d="M512 128c-211.7 0-384 172.3-384 384s172.3 384 384 384 384-172.3 384-384-172.3-384-384-384z m0 717.4c-183.8 0-333.4-149.6-333.4-333.4S328.2 178.6 512 178.6 845.4 328.2 845.4 512 695.8 845.4 512 845.4z" p-id="887" fill="#14ae13"></path></svg>