<?xml version="1.0" standalone="no"?><!DOCTYPE svg PUBLIC "-//W3C//DTD SVG 1.1//EN" "http://www.w3.org/Graphics/SVG/1.1/DTD/svg11.dtd"><svg t="1553824427422" class="icon" style="" viewBox="0 0 1024 1024" version="1.1" xmlns="http://www.w3.org/2000/svg" p-id="10547" xmlns:xlink="http://www.w3.org/1999/xlink" width="32" height="32"><defs><style type="text/css"></style></defs><path d="M806.517 614.509c-13.9 0-24.324 10.425-24.324 20.849v267.567c0 6.95-6.95 10.425-13.9 10.425h-573.359c-6.95 0-10.425-3.475-10.425-10.425v-781.853c0-3.475 3.475-10.425 10.425-10.425h573.359c6.95 0 13.9 6.95 13.9 10.425v187.644c0 10.425 10.425 20.849 24.324 20.849s24.324-10.425 24.324-20.849v-191.12c0-31.274-27.799-55.598-59.073-55.598h-580.31c-31.274 0-55.598 24.324-55.598 55.598v788.803c0 31.274 24.324 55.598 55.598 55.598h580.31c31.274 0 59.073-24.324 59.073-55.598v-271.043c0-10.425-10.425-20.849-24.324-20.849zM921.189 336.518v0c-10.425-10.425-27.799-10.425-38.224 0l-416.989 451.737-145.946-149.422c-10.425-10.425-27.799-10.425-38.224 0v0c-10.425 13.9-10.425 31.274 0 41.699l166.795 163.32c10.425 10.425 27.799 10.425 38.224 0v0c0 0 0 0 3.475-3.475l430.888-462.162c10.425-10.425 10.425-27.799 0-41.699zM681.421 214.895h-392.663c-10.425 0-20.849 10.425-20.849 24.324s10.425 24.324 20.849 24.324h392.663c10.425 0 20.849-10.425 20.849-24.324s-10.425-24.324-20.849-24.324zM639.722 350.416h-350.964c-10.425 0-20.849 10.425-20.849 20.849 0 13.9 10.425 24.324 20.849 24.324h350.964c13.9 0 24.324-10.425 24.324-24.324 0-10.425-10.425-20.849-24.324-20.849zM552.849 482.463h-264.093c-10.425 0-20.849 10.425-20.849 24.324 0 10.425 10.425 20.849 20.849 20.849h264.093c13.9 0 24.324-10.425 24.324-20.849 0-13.9-10.425-24.324-24.324-24.324z" p-id="10548" fill="#14ae13"></path></svg>