<?xml version="1.0" standalone="no"?><!DOCTYPE svg PUBLIC "-//W3C//DTD SVG 1.1//EN" "http://www.w3.org/Graphics/SVG/1.1/DTD/svg11.dtd"><svg t="1555901974258" class="icon" style="" viewBox="0 0 1024 1024" version="1.1" xmlns="http://www.w3.org/2000/svg" p-id="22922" id="mx_n_1555901974259" xmlns:xlink="http://www.w3.org/1999/xlink" width="32" height="32"><defs><style type="text/css"></style></defs><path d="M1009.954278 98.320052c-46.819073 0-42.137165 32.773351-42.137165 42.137166s14.045722 14.045722 14.045722 28.091443v558.484651c0 51.50098-18.727629 69.559765-55.514043 74.241672-107.015023-4.681907-297.635532-9.363815-385.922927 32.77335-18.727629 9.363815-32.773351 9.363815-55.514043 0-78.923579-37.455258-251.485304-37.455258-363.182233-32.77335-60.19595 0-83.605487-9.363815-78.92358-78.92358V167.879817c-0.668844-14.045722 13.376878-14.045722 13.376878-27.422599 0-18.727629 4.681907-42.137165-42.137165-42.137166-14.045722 0-14.045722 0-14.045722 14.045722v609.316786c0 121.060745 64.877858 111.69693 92.969301 111.696931 111.69693-4.681907 278.907903-9.363815 377.227956 32.77335 23.409536 9.363815 60.19595 9.363815 78.923579 0 92.969301-42.137165 260.849118-37.455258 367.864141-32.77335 46.819073 0 102.333116 0 102.333116-125.742652v-595.271065c4.681907-14.045722 4.681907-14.045722-9.363815-14.045722z" fill="#6B6B6B" p-id="22923"></path><path d="M139.788374 754.455911h97.651208c74.241672 0 195.302417 4.681907 256.167211 23.409536 9.363815 9.363815 18.727629 4.681907 18.727629 4.681908s9.363815 4.681907 18.727629-4.681908c55.514043-18.727629 176.574788-23.409536 256.167211-23.409536h97.651208c51.50098 0 60.19595-9.363815 60.195951-83.605486V158.516003c0-60.19595-18.727629-74.241672-78.92358-78.92358-102.333116 0-288.271718 18.727629-344.454605 46.819073h-4.681907-4.681907c-60.19595-28.091444-246.803396-46.819073-349.136512-46.819073-60.19595 4.681907-78.923579 18.727629-78.923579 78.92358v511.665578c-0.668844 74.910516 8.694971 84.274331 55.514043 84.27433z" fill="#6B6B6B" p-id="22924"></path><path d="M530.393207 163.19791c51.50098-23.409536 228.075767-42.137165 325.726976-42.137165 37.455258 4.681907 37.455258 4.681907 42.137165 37.455258v511.665578c0 46.819073-18.727629 42.137165-42.137165 42.137165h-74.241672c-92.969301 0-204.666231 4.681907-251.485304 18.727629V163.19791z m-404.650555-4.681907c0-37.455258 0-37.455258 42.137165-37.455258 102.333116 0 278.907903 18.727629 325.726976 42.137165v567.848465c-46.819073-14.045722-158.516003-18.727629-251.485304-18.727629h-74.241672c-23.409536 0-46.819073 4.681907-42.137165-42.137165V158.516003z" fill="#FFFFFF" p-id="22925"></path></svg>