<?xml version="1.0" standalone="no"?><!DOCTYPE svg PUBLIC "-//W3C//DTD SVG 1.1//EN" "http://www.w3.org/Graphics/SVG/1.1/DTD/svg11.dtd"><svg t="1555900138522" class="icon" style="" viewBox="0 0 1024 1024" version="1.1" xmlns="http://www.w3.org/2000/svg" p-id="21406" xmlns:xlink="http://www.w3.org/1999/xlink" width="32" height="32"><defs><style type="text/css"></style></defs><path d="M814.972 89.406h-77.726V71.688c0-28.38-23.006-51.386-51.386-51.386H338.14c-28.38 0-51.386 23.006-51.386 51.386v17.718h-77.727c-53.823 0-97.456 43.632-97.456 97.456v719.405c0 53.823 43.633 97.456 97.456 97.456H814.97c53.823 0 97.456-43.633 97.456-97.456V186.862c0.002-53.824-43.631-97.456-97.454-97.456z m-463.384 17.338c0-18.594 15.073-33.667 33.666-33.667h253.492c18.593 0 33.667 15.073 33.667 33.667v53.158c0 18.594-15.074 33.667-33.667 33.667H385.254c-18.593 0-33.666-15.073-33.666-33.667v-53.158z m341.999 362.782L480.636 682.478a30.015 30.015 0 0 1-2.048 2.28l-2.506 2.506c-13.147 13.147-35.911 11.701-50.843-3.23l-95.337-95.337c-14.932-14.932-16.378-37.695-3.23-50.843l2.505-2.505c13.148-13.148 35.911-11.701 50.843 3.23l72.14 72.139 191.31-191.31c15.307-15.307 38.374-17.056 51.521-3.909l2.506 2.506c13.147 13.147 11.396 36.214-3.91 51.521z" fill="#47b070" p-id="21407"></path></svg>