<?xml version="1.0" standalone="no"?><!DOCTYPE svg PUBLIC "-//W3C//DTD SVG 1.1//EN" "http://www.w3.org/Graphics/SVG/1.1/DTD/svg11.dtd"><svg t="1555298509406" class="icon" style="" viewBox="0 0 1024 1024" version="1.1" xmlns="http://www.w3.org/2000/svg" p-id="8335" xmlns:xlink="http://www.w3.org/1999/xlink" width="32" height="32"><defs><style type="text/css"></style></defs><path d="M512 512m-512 0a512 512 0 1 0 1024 0 512 512 0 1 0-1024 0Z" fill="#58C484" p-id="8336"></path><path d="M778.659276 359.34337v0.040315c-15.03748-15.827654-40.242394-16.62589-56.287748-1.798047a45.580094 45.580094 0 0 0-1.10463 1.064315L444.665953 632.477228 301.830047 487.633638c-14.860094-15.021354-39.710236-14.215055-55.570141 1.830299-15.859906 16.117921-16.682331 41.322835-1.822237 56.376441L419.033701 722.847244c14.860094 15.021354 39.750551 14.17474 55.570142-1.870614a42.862866 42.862866 0 0 0 8.393574-12.271874c1.56422-1.169134 3.120378-2.273764 4.571717-3.660599l290.420913-287.526299a41.516346 41.516346 0 0 0 0.669229-58.174488z" fill="#FFFFFF" p-id="8337"></path></svg>