<?xml version="1.0" standalone="no"?><!DOCTYPE svg PUBLIC "-//W3C//DTD SVG 1.1//EN" "http://www.w3.org/Graphics/SVG/1.1/DTD/svg11.dtd"><svg t="1555289304975" class="icon" style="" viewBox="0 0 1024 1024" version="1.1" xmlns="http://www.w3.org/2000/svg" p-id="2007" xmlns:xlink="http://www.w3.org/1999/xlink" width="32" height="32"><defs><style type="text/css"></style></defs><path d="M512 1024C229.818928 1024 1.02223 794.769282 1.02223 512.005711S229.818928 0 512 0s510.97777 229.242139 510.97777 512.005711-228.785277 511.994289-510.97777 511.994289z m-57.039273-804.466187l12.769305 392.113591H556.110066l13.477442-392.113591z m103.342279 467.678635q-18.011801-17.726262-45.355016-17.760527c-18.011801 0-33.122525 5.870682-45.537762 17.56636s-18.525771 26.703608-18.525771 44.966684c0 17.56636 6.064849 32.448653 18.274497 44.646879s28.748068 18.274497 49.432513 18.274497q24.624884 0 42.15698-18.274497t17.56636-44.646879q0.068529-27.023412-18.000379-44.783939z" fill="#0984D7" p-id="2008"></path></svg>