<?xml version="1.0" standalone="no"?><!DOCTYPE svg PUBLIC "-//W3C//DTD SVG 1.1//EN" "http://www.w3.org/Graphics/SVG/1.1/DTD/svg11.dtd"><svg t="1555298480322" class="icon" style="" viewBox="0 0 1024 1024" version="1.1" xmlns="http://www.w3.org/2000/svg" p-id="5817" xmlns:xlink="http://www.w3.org/1999/xlink" width="32" height="32"><defs><style type="text/css"></style></defs><path d="M512 0c282.760533 0 512 229.239467 512 512S794.760533 1024 512 1024 0 794.760533 0 512 229.239467 0 512 0z m52.002133 512.238933l142.421334-142.3872a36.573867 36.573867 0 0 0-0.1024-51.626666 36.471467 36.471467 0 0 0-51.6608-0.1024l-142.421334 142.3872-142.421333-142.3872a36.4544 36.4544 0 0 0-51.6608 0.1024 36.573867 36.573867 0 0 0-0.1024 51.626666l142.421333 142.3872-142.421333 142.3872a36.590933 36.590933 0 0 0 0.1024 51.643734c14.3872 14.370133 37.410133 14.336 51.6608 0.1024l142.421333-142.3872 142.421334 142.3872a36.4544 36.4544 0 0 0 51.6608-0.1024 36.590933 36.590933 0 0 0 0.1024-51.643734l-142.421334-142.3872z" fill="#FB3838" p-id="5818"></path></svg>